<?xml version="1.0" encoding="UTF-8"?>
<!-- Generator: Adobe Illustrator 16.0.0, SVG Export Plug-In . SVG Version: 6.00 Build 0)  -->
<!DOCTYPE svg PUBLIC "-//W3C//DTD SVG 1.1//EN" "http://www.w3.org/Graphics/SVG/1.1/DTD/svg11.dtd">
<svg version="1.1" id="Capa_1" xmlns="http://www.w3.org/2000/svg" xmlns:xlink="http://www.w3.org/1999/xlink" x="0px" y="0px" width="612px" height="612px" viewBox="0 0 612 612" enable-background="new 0 0 612 612" xml:space="preserve">
<g>
	<g>
		<path fill="#4D4D4D" d="M587.572,186.881c-32.267-75.225-87.097-129.934-162.949-162.285    C386.711,8.427,346.992,0.168,305.497,0.168c-41.488,0-80.914,8.181-118.784,24.428C111.488,56.861,56.415,111.535,24.092,186.881    C7.895,224.629,0,264.176,0,305.664c0,41.496,7.895,81.371,24.092,119.127c32.323,75.346,87.403,130.348,162.621,162.621    c37.877,16.247,77.295,24.42,118.784,24.42s81.214-8.259,119.12-24.42C500.47,555.06,555.3,500.009,587.573,424.791    C603.819,386.914,612,347.16,612,305.664C612,264.176,603.826,224.757,587.572,186.881z M538.724,440.853    c-24.021,41.195-56.929,73.876-98.375,98.039c-41.194,24.021-86.332,36.136-134.845,36.136c-36.47,0-71.27-7.024-104.4-21.415    c-33.129-14.384-61.733-33.294-85.661-57.215C91.515,472.469,72.47,443.586,58.229,410.4    c-14.199-33.065-21.08-68.258-21.08-104.735c0-48.52,11.921-93.428,35.807-134.509c23.971-41.231,56.886-73.947,98.039-98.04    c41.146-24.092,85.99-36.142,134.502-36.142c48.52,0,93.649,12.121,134.845,36.142c41.446,24.164,74.283,56.879,98.375,98.039    c24.092,41.153,36.135,85.99,36.135,134.509C574.852,354.186,562.888,399.399,538.724,440.853z"/>
		<path fill="#4D4D4D" d="M324.906,302.988V129.659c0-10.372-9.037-18.738-19.41-18.738c-9.701,0-18.403,8.366-18.403,18.738    v176.005c0,0.336,0.671,1.678,0.671,2.678c-0.671,6.024,1.007,11.043,5.019,15.063L392.836,423.45    c6.695,6.694,19.073,6.694,25.763,0c7.694-7.695,7.188-18.86,0-26.1L324.906,302.988z"/>
	</g>
</g>
</svg>